<svg width="57" height="37" viewBox="0 0 57 37" fill="none" xmlns="http://www.w3.org/2000/svg">
<path fill-rule="evenodd" clip-rule="evenodd" d="M9.41586 0L0 9.34834L28.2708 37L56.601 9.35083L47.1284 0H9.41586ZM47.3452 12.3831C47.0871 16.2942 43.9631 19.1797 40.8236 18.6071V19.0303C40.8202 20.1715 40.3485 21.2651 39.5116 22.0721C38.6747 22.8791 37.5406 23.334 36.3571 23.3372H20.3163C19.1312 23.3339 17.9958 22.8777 17.159 22.0684C16.3222 21.2592 15.8523 20.1631 15.8523 19.0203V18.5921C12.6999 19.2021 9.5527 16.3092 9.29452 12.3831C9.01052 8.21558 11.3858 6.72184 11.3858 6.72184C13.2576 5.55921 14.9358 6.17414 15.8859 6.74674C16.0208 5.70413 16.545 4.74462 17.3604 4.04769C18.1759 3.35075 19.2266 2.96412 20.3163 2.9601H36.3571C37.4438 2.9616 38.4929 3.34401 39.309 4.03608C40.125 4.72815 40.6523 5.68269 40.7926 6.72184C41.7479 6.15422 43.4106 5.56917 45.2565 6.72184C45.2564 6.72184 45.2573 6.72249 45.2591 6.72379C45.2603 6.72461 45.2618 6.72569 45.2638 6.72703C45.4068 6.82611 47.6171 8.35675 47.3452 12.3831ZM24.7119 13.1175C24.9957 11.4319 23.8086 9.84363 22.0605 9.57001C20.3124 9.2964 18.6653 10.4411 18.3816 12.1267C18.0978 13.8123 19.2849 15.4006 21.033 15.6742C22.781 15.9478 24.4282 14.8032 24.7119 13.1175ZM38.296 12.6196C38.296 14.3273 36.8604 15.7117 35.0894 15.7117C33.3184 15.7117 31.8828 14.3273 31.8828 12.6196C31.8828 10.9119 33.3184 9.52757 35.0894 9.52757C36.8604 9.52757 38.296 10.9119 38.296 12.6196Z" fill="white"/>
</svg>
